<?xml version="1.0" encoding="utf-8"?>
<!-- Generator: Adobe Illustrator 16.0.4, SVG Export Plug-In . SVG Version: 6.00 Build 0)  -->
<!DOCTYPE svg PUBLIC "-//W3C//DTD SVG 1.1 Tiny//EN" "http://www.w3.org/Graphics/SVG/1.1/DTD/svg11-tiny.dtd">
<svg version="1.1" baseProfile="tiny" id="Layer_1" xmlns="http://www.w3.org/2000/svg" xmlns:xlink="http://www.w3.org/1999/xlink"
	 x="0px" y="0px" viewBox="0 0 307.667 379.324" xml:space="preserve">
<g>
	<path fill="#5E5F5F" d="M307.291,177.998c-1.754-5.026-5.923-8.544-11.767-9.667c-14.447-2.776-30.944-0.891-44.76,3.622
		c-7.399,2.417-13.994,5.835-19.891,9.99c0.433-35.323,4.154-70.473,5.115-105.752c0.527-19.374-3.148-50.96-34.402-47.639
		c-8.795,0.935-15.05,4.636-19.489,9.88c-2.105-20.186-9.877-41.124-33.759-38.147c-18.801,2.345-26.031,19.489-28.609,37.564
		c-5.186-6.55-13.174-10.594-25.386-9.296c-30.339,3.224-30.562,39.289-29.694,58.537c0.771,17.136,3.176,34.111,3.487,51.295
		c0.213,11.792-2.938,25.197-1.629,37.481c-3.05-1.486-6.236-2.812-9.604-3.912c-13.815-4.513-30.313-6.398-44.761-3.622
		c-5.844,1.123-10.013,4.641-11.767,9.667c-2.082,5.965,4.979,11.049,9.072,14.614c6.924,6.032,13.949,11.114,19.862,18.019
		c9.604,11.214,15.295,23.498,18.922,37.189c6.375,24.074,4.116,49.13,7.705,73.511c3.797,25.799,23.643,72.854,62.219,53.402
		c2.626-1.323,1.656-5.437-1.528-5.277c-17.828,0.895-29.77-1.985-38.971-16.618c-7.547-12.003-10.042-26.886-11.417-40.413
		c-2.026-19.918-1.721-39.856-5.353-59.656c-3.797-20.707-12.882-37.424-27.095-53.888c-3.581-4.147-8.526-7.448-12.851-10.924
		c-2.441-1.963-4.88-3.913-7.241-5.954c-3.261-2.818-2.678-3.427,1.609-4.78c12.157-3.839,29.724,0.09,41.263,4.394
		c4.949,1.846,9.425,4.225,13.486,7.019c0.073,0.146,0.139,0.294,0.215,0.439c0.505,0.971,1.43,1.423,2.429,1.494
		c10.861,8.324,18.58,19.703,24.421,31.624c3.941,8.043,6.98,16.423,10.043,24.759c3.413,9.29,5.081,19.248,9.838,28.062
		c1.364,2.526,5.977,1.376,5.864-1.375c-0.82-20.218-9.405-42.424-19.206-60.512c-6.811-12.569-15.992-23.894-28.119-32.073
		c-0.45-5.84,0.845-12.317,1.542-17.604c0.95-7.208,1.307-14.299,1.347-21.554c0.088-15.277-1.07-30.333-2.562-45.534
		c-1.605-16.379-6.415-56.2,21.06-59.303c14.829-1.675,19.997,10.327,21.507,23.553c0.028,2.98,0.109,5.801,0.207,8.36
		c0.771,20.108,3.177,40.027,3.487,60.19c0.294,19.029-5.785,41.64,2.139,59.482c1.634,3.679,7.63,1.045,6.44-2.715
		c-2.584-8.178-0.565-19.022,0.371-27.354c0.95-8.456,1.306-16.776,1.347-25.29c0.089-17.927-1.071-35.593-2.562-53.431
		c-1.605-19.219-6.415-65.946,21.06-69.586c23.465-3.11,22.745,33.973,21.607,53.339c-0.243,1.892-0.429,3.782-0.559,5.652
		c0.068-0.014,0.136-0.024,0.205-0.037c-0.025,0.376-0.048,0.742-0.069,1.087c-2.351,38.876-4.29,77.751-4.219,116.714
		c0.012,6.259,9.676,5.917,9.687-0.317c0.076-41.344,3.734-82.469,4.976-123.724c1.854-12.911,7.424-24.32,21.62-25.924
		c26.613-3.006,22.118,38.051,21.187,51.168c-2.353,33.131-4.291,66.26-4.22,99.466c0.001,0.732,0.197,1.348,0.513,1.87
		c-7.127,6.855-12.958,14.907-17.649,23.563c-9.799,18.088-18.383,40.294-19.204,60.512c-0.112,2.751,4.5,3.901,5.863,1.375
		c4.758-8.814,6.425-18.772,9.839-28.062c3.063-8.336,6.102-16.716,10.042-24.759c8.392-17.126,20.642-33.153,40.552-40.576
		c11.538-4.303,29.104-8.232,41.262-4.394c4.287,1.354,4.871,1.962,1.609,4.78c-2.361,2.041-4.8,3.991-7.241,5.954
		c-4.324,3.476-9.27,6.776-12.851,10.924c-14.213,16.464-23.297,33.181-27.096,53.888c-3.631,19.8-3.324,39.737-5.352,59.656
		c-1.375,13.526-3.869,28.41-11.416,40.413c-9.201,14.633-21.144,17.513-38.971,16.618c-3.186-0.16-4.154,3.954-1.529,5.277
		c38.576,19.453,58.422-27.603,62.219-53.402c3.589-24.381,1.33-49.437,7.706-73.511c3.627-13.691,9.317-25.976,18.922-37.189
		c5.913-6.905,12.938-11.986,19.862-18.019C302.312,189.047,309.374,183.963,307.291,177.998z"/>
	<path fill="#5E5F5F" d="M213.029,323.813c0.645-0.5,1.041-1.349,0.874-2.195c-0.042-0.214-0.098-0.417-0.145-0.628
		c0.047-0.212,0.103-0.416,0.145-0.629c0.167-0.846-0.229-1.695-0.874-2.195c-6.428-21.273-30.795-28.636-51.107-30.161
		c-25.474-1.911-50.213,8.555-63.134,30.532c-1.234-0.369-2.103,1.068-1.531,2.164c0.051,0.098,0.107,0.192,0.159,0.29
		c-0.052,0.097-0.108,0.19-0.159,0.289c-0.571,1.096,0.297,2.533,1.531,2.164c12.921,21.976,37.66,32.442,63.134,30.531
		C182.234,352.45,206.602,345.087,213.029,323.813z M187.176,335.76c-10.957,3.993-21.761,6.005-33.472,5.406
		c-10.945-0.56-24.547-1.526-33.968-7.772c-5.802-3.846-10.871-8.638-16.671-12.404c5.8-3.767,10.869-8.559,16.671-12.405
		c9.421-6.246,23.022-7.212,33.968-7.772c11.711-0.599,22.515,1.414,33.472,5.406c8.105,2.952,12.412,10.055,18.562,14.771
		C199.588,325.707,195.281,332.809,187.176,335.76z"/>
	<path fill="#5E5F5F" d="M166.787,317.409c-0.031-0.134-0.066-0.265-0.104-0.397c-0.046-0.162-0.074-0.326-0.129-0.488
		c-0.01,0.021-0.02,0.041-0.029,0.061c-0.55-1.627-1.478-3.121-2.777-4.273c-1.516-1.344-3.236-2.047-5.114-2.327
		c0.199,0.015,0.396,0.03,0.595,0.045c-4.208-1.27-9.016,1.507-10.899,5.217c-2.018,3.973-1.062,8.944,2.268,11.897
		c2.688,2.383,6.489,3.04,9.805,1.913c-0.009,0.018-0.017,0.036-0.026,0.053c0.22-0.076,0.422-0.175,0.632-0.263
		c0.114-0.048,0.23-0.09,0.343-0.144c0.46-0.213,0.905-0.45,1.323-0.729c0.002-0.001,0.004-0.002,0.006-0.003
		c0.005-0.003,0.008-0.008,0.013-0.011c0.691-0.464,1.324-1.015,1.897-1.656c0.508-0.573,0.919-1.212,1.279-1.878
		c0.042-0.078,0.106-0.137,0.147-0.217l0.161-0.458c0.22-0.493,0.398-0.998,0.537-1.52l0.156-0.446
		c0.035-0.168,0.044-0.334,0.069-0.502c0.022-0.134,0.041-0.268,0.059-0.403c0.066-0.584,0.103-1.167,0.068-1.745
		C167.029,318.554,166.925,317.98,166.787,317.409z"/>
	<path fill="#5E5F5F" d="M140.511,210.796c12.594,5.592,30.664,4.104,36.37-10.697c0.371-0.962-0.632-2.16-1.657-1.837
		c-5.328,1.674-9.399,5.688-14.327,8.243c-5.993,3.107-13.442,1.226-19.695,0.255C138.704,206.371,138.576,209.937,140.511,210.796z
		"/>
	<path fill="#5E5F5F" d="M155.343,195.165c-6.202,0-5.848,9.6,0.334,9.6C161.878,204.765,161.523,195.165,155.343,195.165z"/>
	<path fill="#5E5F5F" d="M133.003,253.104c-0.468,1.245,1.173,2.271,2.125,1.396c2.198-2.02,4.307-5.22,6.396-2.009
		c1.568,2.41,2.61,5.146,4.079,7.619c3.097,5.216,8.006,8.71,14.153,6.485c9.226-3.337,10.061-14.43,6.467-23.282
		c3.092,1.198,7.437,0.211,9.281-2.52c2.907-4.302,1.945-9.604,5.628-13.71c1.507-1.678,3.697-2.691,5.935-2.751
		c3.62-0.098,1.77,2.929,0.658,4.952c-0.538,0.981,0.541,1.917,1.44,1.264c7.53-5.473,0.618-13.279-7.001-10.003
		c-5.464,2.35-8.183,7.065-9.937,12.511c-1.901,5.9-4.681,3.385-7.954,0.908c3.097-3.369,3.807-7.942-0.211-12.699
		c-5.065-5.997-16.784-5.406-18.312,3.281c-0.371,2.112,2.066,4.287,3.882,2.404c2.557-2.649,4.557-4.658,8.273-2.667
		c5.7,3.054,0.783,6.614-3.087,7.937c-2.824,0.964-3.438,5.629-0.026,6.314c7.079,1.419,8.356,12.735,6.718,18.381
		c-2.709,9.335-9.648,1.619-11.956-2.542c-1.886-3.399-3.574-7.589-7.497-9.009C137.315,243.651,134.278,249.704,133.003,253.104z"
		/>
</g>
</svg>
