<?xml version="1.0" encoding="utf-8"?>
<!-- Generator: Adobe Illustrator 16.0.4, SVG Export Plug-In . SVG Version: 6.00 Build 0)  -->
<!DOCTYPE svg PUBLIC "-//W3C//DTD SVG 1.1 Tiny//EN" "http://www.w3.org/Graphics/SVG/1.1/DTD/svg11-tiny.dtd">
<svg version="1.1" baseProfile="tiny" id="Layer_1" xmlns="http://www.w3.org/2000/svg" xmlns:xlink="http://www.w3.org/1999/xlink"
	 x="0px" y="0px" viewBox="0 0 415.189 376.876" xml:space="preserve">
<g>
	<path fill="#5E5F5F" d="M413.375,278.369c-2.831-0.871-5.553-0.509-8.491-0.423c-3.778,0.111-7.618-0.629-11.315-1.324
		c-4.797-0.903-9.519-2.263-14.208-3.704c-0.172-0.343-0.375-0.675-0.6-0.996c0.831-3.569-0.044-7.799-1.933-10.854
		c-2.13-3.445-5.859-5.262-9.584-6.439c-1.32-0.418-2.387-0.09-3.115,0.605c-2.866-2.502-6.455-3.989-10.374-4.104
		c-3.842-0.112-7.468,2.157-9.392,5.407c-0.795-0.35-1.625-0.523-2.399-0.404c-0.843,0.129-1.57,0.306-2.238,0.682
		c-0.114,0.009-0.226,0.022-0.339,0.038c-2.927-1.47-5.961-2.767-9.006-3.348c-1.154-0.757-2.312-1.491-3.436-2.223
		c-6.305-4.114-13.173-7.084-20.272-9.517c-13.802-4.73-27.248-3.317-41.019-0.337c-0.114-0.027-0.228-0.054-0.345-0.067
		c-4.624-0.588-9.511,0.421-14.188,0.479c-5.33,0.066-10.668-0.375-15.984-0.709c-11.561-0.727-22.421,0.442-33.836,2.24
		c-12.632,1.987-25.743,4.056-38.479,1.777c-10.961-1.961-20.146-8.727-28.672-15.467c-8.309-6.568-26.458-23.557-37.988-14.468
		c-5.378,4.239-2.278,11.013,3.042,16.96c-2.046-1.078-4.085-2.169-6.096-3.3c-12.36-6.954-31.783-20.268-45.661-9.793
		c-0.34,0.256-0.583,0.548-0.751,0.858c-9.724-2.422-19.716-1.889-29.702,4.114c-2.075,1.248-3.029,4.442-1.521,6.495
		c4.332,5.896,10.755,9.525,17.09,12.943c2.344,1.265,4.656,2.539,6.884,3.953c-8.251,0.596-16.288,2.596-23.305,6.382
		c-5.267,2.844-10.676,8.98-8.517,15.25c2.218,6.431,13.811,8.828,19.363,10.486c9.233,2.757,18.91,3.929,28.332,5.865
		c11.159,2.291,21.827,6.576,32.632,10.084c9.716,3.155,19.25,5.794,28.572,10.096c9.402,4.34,18.427,9.479,27.582,14.306
		c16.619,8.763,34.763,17.136,53.945,16.729c9.907-0.211,20.02-3.318,29.816-4.746c10.183-1.485,20.205-3.703,30.312-5.604
		c9.683-1.82,19.446-2.914,29.306-2.43c6.014,0.297,11.961,1.619,17.832,3.619c1.403,1.361,3.288,2.072,5.267,1.959
		c2.531,1.041,5.045,2.197,7.542,3.445c0.025,0.729,0.143,1.453,0.348,2.167c-0.146,0.121-0.273,0.26-0.408,0.394
		c-0.886-0.114-1.842,0.169-2.697,1.077c-10.982,11.663,13.566,25.061,17.648,12.905c0.434-0.066,0.824-0.127,0.909-0.155
		c0.998-0.3,1.977-0.686,2.965-1.018c1.373-0.459,2.858-0.944,3.902-1.877c0.757,0.503,1.509,1.009,2.262,1.513
		c-0.677,0.626-1.213,1.394-1.451,2.306c-0.578,2.215,0.862,4.827,3.064,5.4c0.02,0.029,0.028,0.062,0.049,0.091
		c2.252,3.138,7.844,5.002,10.851,1.697c0.204-0.225,0.362-0.464,0.502-0.709c4.596,3.081,9.103,6.022,13.491,8.597
		c3.237,1.9,6.323,4,9.26,6.335c2.649,2.105,4.398,4.727,7.9,5.218c2.25,0.315,4.608-0.921,4.562-3.496
		c-0.119-6.343-6.961-10.082-11.659-13.37c-6.978-4.886-14.755-8.671-22.265-12.651c-1.844-0.978-3.675-2.042-5.505-3.136
		c0.724-1.507,0.854-3.288,0.518-4.938c-0.017-0.085-0.056-0.155-0.076-0.237c0.85-1.727,0.665-3.866,0.623-5.807
		c-0.063-2.914,0.603-4.937,1.646-7.58c0.099-0.25,0.152-0.484,0.187-0.713c1.43-0.562,2.683-1.648,3.657-2.931
		c1.041-1.371,2.168-3.343,1.948-5.131c-0.206-1.683-0.856-2.861-2.199-3.855c0.002-0.004,0.004-0.011,0.006-0.017
		c1.074,0.749,0.574,0.334,0.011-0.025c0.371-0.878,0.63-1.82,0.872-2.713c0.326-1.208,0.717-2.374,0.979-3.574
		c0.193-0.038,0.386-0.057,0.579-0.114c3.919-1.132,5.264-5.909,3.261-9.229c-0.065-0.108-0.157-0.197-0.228-0.3
		c0.611-1.214,1.083-2.531,1.591-3.75c0.733-1.758,2.092-5.142,4.092-5.832c1.577-0.546,2.405-2.048,2.482-3.532
		c1.786,0.438,3.651,0.235,5.272-1.037c0.13-0.104,0.245-0.216,0.366-0.324c5.961,1.682,11.946,3.157,18.15,3.906
		c5.783,0.7,14.676,1.219,18.844-3.661C415.692,281.314,415.402,278.994,413.375,278.369z M341.55,268.749
		c-0.521,0.958-0.844,2.034-0.842,3.101c-1.428-0.197-2.835-0.078-4.097,0.465c-0.78,0.068-1.559,0.227-2.324,0.48
		c-0.05-0.2-0.122-0.396-0.189-0.593c0.197-0.097,0.366-0.182,0.45-0.225c0.884-0.466,1.786-0.923,2.694-1.346
		C338.669,269.969,340.189,269.542,341.55,268.749z M215.575,250.167c4.081-0.514,8.17-0.598,12.261-0.498
		c-5.672,1.05-11.383,1.995-17.182,2.772c-10.646,1.426-21.13,2.099-31.693,2.345C191.203,254.284,203.564,251.686,215.575,250.167z
		 M111.069,223.426c7.49,3.538,13.763,10.131,20.258,15.182c6.484,5.043,13.364,9.815,21.136,12.647
		c7.169,2.612,14.512,3.561,21.918,3.606c-4.583,0.055-9.186,0.044-13.833-0.021c-5.208-0.072-11.199,0.049-16.842,1.183
		c-0.113-0.072-0.22-0.148-0.348-0.21c-7.346-3.588-13.651-8.993-21.059-12.397c-1.073-0.493-2.147-0.999-3.221-1.497
		c0.085-0.526-0.018-1.085-0.398-1.625c-3.435-4.869-8.338-8.631-12.412-12.971c-0.704-0.751-4.61-6.326-4.572-6.342
		C104.227,219.901,108.887,222.396,111.069,223.426z M73.199,227.745c7.032,3.574,13.634,7.92,20.6,11.612
		c9.254,4.905,19.259,8.492,28.399,13.506c3.422,1.877,7.104,4.91,10.976,7.1c-2.092,1.301-3.971,2.906-5.506,4.93
		c-2.817-0.866-5.891-1.295-8.601-2.359c-5.475-2.151-10.463-5.538-15.393-8.698c-10.154-6.509-19.538-14.194-29.678-20.78
		c-6.186-4.017-12.627-7.776-19.234-10.458C60.929,221.384,67.865,225.034,73.199,227.745z M27.157,228.429
		c16.251-8.205,38.949,9.489,51.213,17.974c9.124,6.313,18.651,12.688,28.709,17.437c4.625,2.183,11.739,5.755,17.904,6.218
		c-0.25,0.88-0.403,1.752-0.455,2.61c-7.352-3.075-14.635-6.027-22.335-8.499c-10.111-3.244-19.52-8.367-29.495-12.001
		c-6.231-2.271-13.106-3.839-20.126-4.529c-1.472-4.161-6.904-7.314-10.26-9.546C37.185,234.681,31.943,232.029,27.157,228.429z
		 M311.224,293.086c-0.044,0.091-0.074,0.187-0.113,0.279c-0.236,0.428-0.444,0.87-0.606,1.325
		c-0.606,1.682-0.192,3.387,0.458,4.966c-2.971,3.312-5.459,9.926-4.978,14.744c-1.07,0.605-1.989,1.551-2.582,2.74
		c-0.101,0.203-0.169,0.415-0.25,0.623c-4.354-1.272-8.635-2.152-12.364-2.647c-17.415-2.314-34.945,1.824-51.949,5.131
		c-9.211,1.791-18.583,2.667-27.824,4.298c-10.751,1.898-19.618,2.651-30.327-0.098c-18.874-4.848-35.856-15.577-53.158-24.17
		c-16.76-8.324-34.6-12.755-52.352-18.391c-9.714-3.084-19.492-5.081-29.538-6.71c-9.073-1.473-21.398-2.486-28.967-8.208
		c-2.462-1.861,8.367-6.352,9.146-6.601c5.097-1.634,10.413-2.333,15.735-2.646c10.594-0.622,21.185,1.348,31.159,4.821
		c9.233,3.215,17.912,7.772,27.252,10.738c9.036,2.87,18.101,5.375,27.193,7.975c2.318,3.344,5.856,6.107,9.508,7.904
		c12.801,6.299,28.808,1.477,42.431,2.42c7.913,0.548,15.843,1.369,23.706,2.415c10.245,1.36,20.345,2.465,29.48,7.581
		c0.516,0.288,1.023-0.41,0.528-0.766c-9.404-6.771-20.021-10.834-31.325-12.969c-12.919-2.444-25.901-4.435-39.071-3.252
		c-6.334,0.571-13.06,2.344-19.421,1.204c-3.84-0.688-8.392-3.697-9.985-7.568c-0.052-0.434-0.182-0.861-0.391-1.26
		c-0.322-1.407-0.249-2.898,0.398-4.415c2.505-5.871,13.134-6.928,18.406-7.302c7.185-0.508,14.522-0.094,21.722-0.085
		c28.867,0.036,57.382-5.037,85.21-12.469c13.933-3.721,27.291-6.867,41.729-4.467c12.611,2.097,23.902,8.219,35.104,14.763
		c0.011,0.044,0.03,0.084,0.042,0.127c-0.943,0.456-1.869,0.949-2.751,1.46c-1.43,0.826-2.386,1.87-3.388,3.156
		c-0.039,0.049-0.067,0.1-0.102,0.15c-0.398-0.028-0.8-0.022-1.197,0.047c-0.271,0-0.545,0.016-0.822,0.058
		c-1.127,0.171-2.099,0.812-2.928,1.563c-1.104,1-1.508,2.429-1.624,3.854c-0.092,1.134,0.258,2.256,0.858,3.238
		c-1.087,0.932-1.988,2.205-2.847,3.279c-2.346,2.932-3.502,5.867-4.764,9.325c-0.092,0.249-0.137,0.482-0.173,0.713
		C313.759,290.196,312.147,291.191,311.224,293.086z M324.371,302.655c-5.774,1.335-7.543,8.43-5.447,13.388
		c0.88,2.084,2.347,4.046,4.16,5.517c-0.996,1.148-1.974,2.479-2.798,3.912c-0.906-0.622-1.864-1.195-2.833-1.758
		c0.19-0.404,0.368-0.808,0.522-1.2c0.483-1.225,0.418-2.528,0.195-3.794c-0.044-0.245-0.193-0.582-0.318-0.847
		c-0.104-0.241-0.258-0.586-0.362-0.787c-0.243-0.47-0.619-0.903-1.016-1.257c-0.934-0.829-2.12-1.396-3.364-1.642
		c0.027-2.046,1.039-4.636,1.542-6.179c0.491-1.504,0.975-2.899,1.359-4.321c1.873,0.227,3.874-0.315,5.377-1.589
		c2.698-2.285,2.277-6.447,0.546-9.143c-0.087-0.136-0.189-0.258-0.286-0.385c0.535-0.542,0.877-1.314,0.846-2.376
		c-0.049-1.711,2.649-4.388,3.638-5.649c0.55-0.7,1.149-1.371,1.711-2.059c-0.141,1.841,0.17,3.734,1.053,5.601
		c0.116,0.248,0.265,0.479,0.401,0.718C325.107,292.078,322.29,297.945,324.371,302.655z M358.408,287.778
		c-0.969,1.648-1.953,3.567-2.505,5.544c-2.05,0.465-3.761,2.08-3.996,4.304c-0.161,0.307-0.328,0.609-0.448,0.948
		c-0.545,1.53-0.059,3.637,0.91,4.901c0.449,0.586,0.975,1.11,1.549,1.567c-0.435,0.901-0.729,1.892-1.044,2.859
		c-0.361,1.107-0.78,2.194-1.095,3.309c-0.773-0.133-1.58-0.025-2.267,0.421c-2.788,1.815-3.944,4.56-3.459,7.812
		c0.25,1.685,1.187,3.157,2.469,4.222c-1.489,1.917-2.048,4.742-2.408,6.991c-0.202,1.268-0.465,2.829-0.509,4.376
		c-0.157,0.03-0.314,0.038-0.47,0.081c-1.521,0.417-2.733,1.44-3.618,2.706c-4.833-2.958-9.753-5.786-14.917-7.878
		c0.485-2.047,1.202-3.985,2.043-5.915c1.231,0.146,2.503,0.058,3.788-0.357c5.132-1.661,6.645-7.726,5.711-12.478
		c-0.82-4.175-3.745-7.491-7.639-8.674c0.817-1.303,1.373-2.704,1.908-4.306c0.509-1.525,1.289-3.284,2.456-4.539
		c1.198,0.453,2.472,0.686,3.783,0.554c4.785-0.478,8.329-4.748,9.154-9.325c0.063-0.351,0.085-0.694,0.114-1.039
		c0.691-1.764,0.966-3.683,0.636-5.711c-0.208-1.288-0.944-2.486-1.901-3.463c0.029-0.025,0.029-0.028-0.005-0.005
		c0,0,0-0.001-0.001-0.001c0.366-0.312,0.645-0.692,0.874-1.113c0.141-0.258,0.316-0.5,0.476-0.745
		c0.019-0.027,0.025-0.037,0.04-0.059c0.081-0.089,0.159-0.18,0.246-0.263c0.153-0.157,0.345-0.391,0.521-0.621
		c1.141,1.657,2.667,3.052,4.317,3.819c2.108,0.979,4.313,1.125,6.391,0.646c1.906,0.865,3.834,1.669,5.787,2.405
		c0.214,0.442,0.473,0.876,0.796,1.293c0.168,0.218,0.353,0.433,0.545,0.644C362.881,281.648,360.458,284.289,358.408,287.778z
		 M369.417,268.339c-0.437,0.085-0.888,0.261-1.326,0.492c0.761-1.917,0.991-3.958,0.661-5.95c0.732,0.542,1.34,1.211,1.654,2.086
		c0.37,1.032,0.486,2.111,0.554,3.199C370.451,268.188,369.938,268.235,369.417,268.339z"/>
	<path fill="#5E5F5F" d="M21.62,100.253c4.797,0.901,9.519,2.264,14.208,3.704c0.173,0.344,0.375,0.675,0.601,0.996
		c-0.832,3.569,0.044,7.799,1.933,10.854c2.129,3.445,5.858,5.261,9.584,6.438c1.32,0.418,2.387,0.089,3.115-0.604
		c2.866,2.502,6.456,3.989,10.375,4.104c3.841,0.112,7.468-2.157,9.391-5.407c0.794,0.351,1.625,0.522,2.399,0.404
		c0.843-0.128,1.57-0.306,2.238-0.682c0.114-0.009,0.226-0.022,0.339-0.038c2.927,1.47,5.961,2.767,9.006,3.348
		c1.154,0.756,2.313,1.491,3.436,2.224c6.305,4.112,13.173,7.083,20.271,9.517c13.802,4.729,27.249,3.315,41.019,0.334
		c0.114,0.027,0.228,0.055,0.345,0.07c4.623,0.588,9.511-0.422,14.188-0.48c5.33-0.066,10.668,0.375,15.984,0.709
		c11.56,0.727,22.42-0.442,33.836-2.239c12.631-1.988,25.743-4.057,38.478-1.78c10.961,1.963,20.145,8.729,28.672,15.469
		c8.31,6.568,26.458,23.557,37.989,14.468c5.377-4.238,2.278-11.014-3.042-16.961c2.046,1.08,4.085,2.17,6.095,3.301
		c12.361,6.954,31.784,20.269,45.661,9.793c0.34-0.256,0.582-0.548,0.751-0.858c9.723,2.422,19.715,1.889,29.702-4.114
		c2.075-1.248,3.029-4.443,1.52-6.495c-4.331-5.896-10.754-9.525-17.09-12.943c-2.344-1.264-4.656-2.539-6.884-3.954
		c8.251-0.596,16.288-2.595,23.305-6.381c5.268-2.843,10.676-8.98,8.516-15.249c-2.218-6.433-13.811-8.829-19.363-10.486
		c-9.233-2.758-18.91-3.931-28.331-5.865c-11.16-2.292-21.828-6.578-32.633-10.086c-9.716-3.155-19.25-5.793-28.571-10.095
		c-9.402-4.338-18.427-9.479-27.582-14.306c-16.62-8.761-34.763-17.135-53.945-16.728c-9.907,0.212-20.02,3.318-29.817,4.746
		c-10.183,1.484-20.205,3.703-30.312,5.602c-9.683,1.821-19.446,2.915-29.305,2.43c-6.014-0.296-11.961-1.617-17.832-3.618
		c-1.404-1.36-3.289-2.072-5.268-1.959c-2.531-1.041-5.045-2.197-7.542-3.445c-0.025-0.729-0.142-1.453-0.348-2.167
		c0.146-0.121,0.273-0.261,0.408-0.394c0.887,0.114,1.842-0.169,2.697-1.077c10.982-11.664-13.566-25.062-17.648-12.905
		c-0.434,0.064-0.823,0.127-0.909,0.153c-0.998,0.3-1.976,0.687-2.965,1.018c-1.372,0.459-2.858,0.945-3.902,1.877
		c-0.757-0.503-1.508-1.008-2.261-1.513c0.676-0.625,1.213-1.394,1.451-2.306c0.577-2.215-0.863-4.829-3.064-5.4
		c-0.019-0.029-0.027-0.061-0.048-0.091c-2.253-3.138-7.845-5.002-10.851-1.696c-0.204,0.224-0.362,0.463-0.502,0.708
		c-4.596-3.081-9.103-6.024-13.491-8.597c-3.237-1.9-6.323-4.001-9.26-6.335c-2.649-2.106-4.398-4.727-7.9-5.218
		c-2.25-0.315-4.607,0.92-4.561,3.493c0.118,6.347,6.961,10.083,11.659,13.373c6.978,4.886,14.754,8.669,22.264,12.65
		c1.844,0.978,3.676,2.043,5.505,3.136c-0.724,1.508-0.853,3.289-0.518,4.94c0.017,0.084,0.056,0.154,0.076,0.237
		c-0.849,1.727-0.665,3.865-0.623,5.805c0.063,2.915-0.603,4.938-1.646,7.58c-0.099,0.25-0.152,0.485-0.187,0.712
		c-1.43,0.565-2.682,1.649-3.657,2.932c-1.042,1.371-2.168,3.344-1.948,5.13c0.207,1.682,0.856,2.862,2.2,3.856
		c-0.002,0.005-0.004,0.01-0.006,0.015c-1.074-0.747-0.574-0.332-0.011,0.028c-0.371,0.878-0.63,1.818-0.872,2.712
		c-0.326,1.207-0.717,2.374-0.98,3.574c-0.193,0.038-0.386,0.057-0.579,0.113c-3.918,1.133-5.264,5.911-3.261,9.229
		c0.065,0.11,0.157,0.198,0.228,0.303c-0.61,1.214-1.083,2.531-1.59,3.748c-0.733,1.758-2.092,5.141-4.092,5.833
		c-1.577,0.544-2.405,2.048-2.483,3.531c-1.786-0.438-3.651-0.234-5.272,1.037c-0.13,0.102-0.244,0.216-0.366,0.322
		c-5.962-1.681-11.946-3.155-18.15-3.906c-5.783-0.699-14.676-1.218-18.844,3.661c-1.255,1.469-0.964,3.789,1.062,4.413
		c2.83,0.873,5.553,0.51,8.49,0.424C14.083,98.818,17.923,99.559,21.62,100.253z M73.64,108.126c0.521-0.958,0.843-2.034,0.842-3.1
		c1.428,0.197,2.835,0.076,4.098-0.465c0.779-0.069,1.559-0.228,2.323-0.481c0.05,0.2,0.122,0.396,0.19,0.591
		c-0.197,0.1-0.366,0.183-0.45,0.228c-0.885,0.465-1.787,0.923-2.695,1.345C76.52,106.905,75,107.333,73.64,108.126z
		 M199.615,126.707c-4.082,0.516-8.17,0.6-12.261,0.499c5.672-1.05,11.383-1.995,17.182-2.771
		c10.646-1.428,21.13-2.101,31.693-2.345C223.986,122.591,211.625,125.19,199.615,126.707z M304.121,153.45
		c-7.49-3.539-13.762-10.132-20.258-15.183c-6.485-5.044-13.365-9.815-21.136-12.646c-7.17-2.613-14.512-3.562-21.919-3.607
		c4.584-0.055,9.187-0.044,13.833,0.02c5.208,0.072,11.199-0.048,16.842-1.183c0.113,0.073,0.22,0.148,0.348,0.21
		c7.346,3.588,13.651,8.993,21.06,12.397c1.073,0.494,2.146,1,3.221,1.498c-0.085,0.524,0.017,1.085,0.398,1.625
		c3.435,4.868,8.338,8.63,12.412,12.971c0.704,0.75,4.61,6.324,4.573,6.342C310.962,156.974,306.302,154.479,304.121,153.45z
		 M341.991,149.131c-7.033-3.574-13.635-7.922-20.601-11.613c-9.254-4.904-19.259-8.493-28.399-13.505
		c-3.422-1.878-7.104-4.911-10.976-7.1c2.093-1.301,3.971-2.906,5.507-4.929c2.817,0.865,5.891,1.294,8.601,2.359
		c5.476,2.151,10.463,5.537,15.393,8.697c10.154,6.51,19.538,14.193,29.678,20.779c6.186,4.018,12.628,7.776,19.234,10.458
		C354.26,155.492,347.325,151.84,341.991,149.131z M388.032,148.446c-16.25,8.204-38.949-9.489-51.212-17.974
		c-9.125-6.313-18.651-12.688-28.709-17.437c-4.624-2.182-11.739-5.753-17.904-6.216c0.25-0.88,0.403-1.752,0.455-2.611
		c7.352,3.074,14.635,6.028,22.335,8.499c10.111,3.243,19.52,8.367,29.495,12.002c6.231,2.27,13.105,3.839,20.126,4.528
		c1.472,4.161,6.904,7.313,10.26,9.546C378.004,142.194,383.246,144.846,388.032,148.446z M103.965,83.788
		c0.044-0.091,0.074-0.187,0.113-0.278c0.236-0.429,0.443-0.871,0.606-1.324c0.606-1.683,0.192-3.388-0.459-4.965
		c2.971-3.312,5.46-9.927,4.978-14.746c1.07-0.604,1.989-1.55,2.581-2.741c0.101-0.201,0.17-0.412,0.25-0.62
		c4.354,1.271,8.635,2.151,12.364,2.646c17.416,2.314,34.945-1.824,51.95-5.131c9.211-1.791,18.583-2.667,27.824-4.299
		c10.75-1.897,19.617-2.651,30.326,0.099c18.874,4.847,35.857,15.577,53.159,24.17c16.76,8.324,34.6,12.755,52.351,18.39
		c9.714,3.085,19.492,5.082,29.538,6.71c9.073,1.473,21.398,2.485,28.967,8.207c2.462,1.862-8.366,6.352-9.145,6.602
		c-5.098,1.634-10.413,2.334-15.736,2.646c-10.592,0.621-21.185-1.348-31.158-4.821c-9.233-3.215-17.913-7.772-27.253-10.738
		c-9.036-2.871-18.1-5.375-27.193-7.976c-2.318-3.344-5.856-6.107-9.509-7.904c-12.801-6.299-28.808-1.477-42.431-2.419
		c-7.913-0.549-15.843-1.37-23.705-2.415c-10.246-1.36-20.345-2.466-29.481-7.582c-0.516-0.289-1.023,0.41-0.528,0.765
		c9.404,6.771,20.021,10.833,31.325,12.97c12.919,2.443,25.901,4.435,39.071,3.25c6.334-0.569,13.06-2.342,19.422-1.202
		c3.839,0.688,8.392,3.696,9.984,7.568c0.052,0.434,0.182,0.86,0.391,1.259c0.322,1.407,0.25,2.899-0.398,4.416
		c-2.505,5.87-13.134,6.928-18.406,7.302c-7.185,0.508-14.522,0.094-21.723,0.085c-28.867-0.036-57.381,5.036-85.21,12.469
		c-13.933,3.722-27.291,6.867-41.729,4.467c-12.61-2.097-23.902-8.219-35.104-14.763c-0.011-0.044-0.031-0.084-0.042-0.127
		c0.943-0.456,1.869-0.949,2.752-1.46c1.43-0.826,2.385-1.87,3.388-3.156c0.039-0.05,0.067-0.101,0.102-0.15
		c0.398,0.028,0.8,0.022,1.197-0.048c0.271,0,0.546-0.016,0.821-0.057c1.128-0.172,2.099-0.812,2.929-1.564
		c1.103-1,1.507-2.429,1.623-3.853c0.092-1.134-0.258-2.256-0.858-3.239c1.087-0.933,1.987-2.205,2.847-3.278
		c2.346-2.933,3.502-5.869,4.765-9.326c0.091-0.249,0.137-0.481,0.173-0.712C101.431,86.678,103.042,85.685,103.965,83.788z
		 M90.818,74.219c5.773-1.335,7.543-8.429,5.447-13.387c-0.88-2.084-2.347-4.045-4.161-5.516c0.996-1.15,1.974-2.48,2.798-3.913
		c0.906,0.621,1.865,1.195,2.832,1.757c-0.19,0.405-0.367,0.808-0.522,1.201c-0.483,1.225-0.418,2.529-0.195,3.794
		c0.044,0.246,0.193,0.581,0.318,0.845c0.104,0.241,0.258,0.587,0.362,0.788c0.243,0.47,0.619,0.902,1.016,1.255
		c0.934,0.833,2.12,1.397,3.364,1.644c-0.028,2.045-1.039,4.636-1.542,6.177c-0.491,1.506-0.976,2.9-1.359,4.322
		c-1.872-0.227-3.875,0.316-5.378,1.589c-2.698,2.284-2.277,6.447-0.546,9.142c0.087,0.136,0.189,0.259,0.285,0.386
		c-0.535,0.541-0.877,1.313-0.846,2.375c0.049,1.713-2.649,4.39-3.639,5.648c-0.55,0.701-1.149,1.373-1.71,2.06
		c0.141-1.84-0.17-3.735-1.053-5.602c-0.116-0.244-0.266-0.478-0.402-0.715C90.082,84.798,92.899,78.928,90.818,74.219z
		 M56.781,89.096c0.969-1.647,1.954-3.566,2.505-5.542c2.05-0.465,3.761-2.08,3.996-4.304c0.161-0.308,0.329-0.609,0.449-0.948
		c0.545-1.53,0.058-3.638-0.91-4.9c-0.45-0.586-0.975-1.111-1.549-1.568c0.436-0.901,0.728-1.892,1.045-2.858
		c0.361-1.106,0.78-2.194,1.095-3.31c0.772,0.132,1.58,0.025,2.267-0.422c2.788-1.814,3.944-4.559,3.46-7.811
		c-0.251-1.684-1.187-3.158-2.47-4.222c1.489-1.916,2.047-4.741,2.407-6.991c0.202-1.267,0.465-2.828,0.509-4.375
		c0.157-0.03,0.315-0.039,0.47-0.083c1.521-0.416,2.733-1.44,3.619-2.704c4.833,2.958,9.754,5.784,14.917,7.877
		c-0.485,2.046-1.202,3.983-2.043,5.913c-1.23-0.146-2.503-0.056-3.788,0.359c-5.132,1.66-6.644,7.725-5.71,12.478
		c0.82,4.174,3.744,7.491,7.638,8.673c-0.816,1.303-1.373,2.703-1.907,4.304c-0.51,1.525-1.29,3.286-2.456,4.541
		c-1.198-0.454-2.473-0.687-3.784-0.555c-4.785,0.479-8.329,4.749-9.154,9.325c-0.062,0.352-0.084,0.694-0.114,1.039
		c-0.691,1.765-0.965,3.683-0.636,5.711c0.208,1.287,0.944,2.486,1.9,3.464c-0.028,0.023-0.029,0.027,0.005,0.004
		c0,0,0,0.001,0.001,0.002c-0.365,0.311-0.644,0.692-0.873,1.113c-0.141,0.258-0.316,0.498-0.476,0.744
		c-0.018,0.028-0.024,0.037-0.04,0.059c-0.081,0.089-0.159,0.18-0.245,0.264c-0.153,0.156-0.346,0.392-0.521,0.621
		c-1.141-1.657-2.668-3.052-4.318-3.818c-2.108-0.981-4.312-1.125-6.391-0.646c-1.906-0.865-3.834-1.668-5.787-2.404
		c-0.213-0.442-0.473-0.877-0.795-1.293c-0.169-0.219-0.353-0.434-0.545-0.645C52.309,95.226,54.73,92.585,56.781,89.096z
		 M45.773,108.537c0.436-0.087,0.888-0.262,1.325-0.493c-0.761,1.918-0.991,3.958-0.661,5.95c-0.732-0.544-1.34-1.211-1.654-2.086
		c-0.371-1.032-0.486-2.111-0.555-3.199C44.738,108.687,45.252,108.639,45.773,108.537z"/>
	<path fill="#5E5F5F" d="M195.04,157.655c8.438-5.974,18.618-7.436,27.255-12.709c0.688-0.42,1-1.592,0.141-2.063
		c-13.167-7.211-31.976-0.334-42.584,9.149c-14.604,13.058-20.213,31.684-17.741,50.91c4.815,37.435,54.76,39.75,76.134,15.607
		c10.291-11.623,18.007-29.129,9.7-43.739c-6.862-12.069-24.801-9.85-35.276-5.056c-13.168,6.025-24.898,21.006-12.195,33.588
		c9.817,9.724,28.264-0.407,24.699-13.749c-0.802-3.001-4.659-3.544-6.383-1.039c-2.313,3.364-3.825,6.786-8.023,8.138
		c-6.569,0.498-8.125-3.378-4.667-11.627c2.065-2.478,5.52-3.952,8.446-5.158c6.438-2.652,17.511-4.835,23.274,0.243
		c7.235,6.374-5.367,23.974-9.23,29.111c-7.709,10.25-18.104,15.182-30.927,15.208c-25.834,0.052-29.972-28.34-20.686-46.917
		C181.21,169.083,187.417,163.052,195.04,157.655z"/>
</g>
</svg>
