<?xml version="1.0" encoding="utf-8"?>
<!-- Generator: Adobe Illustrator 16.0.4, SVG Export Plug-In . SVG Version: 6.00 Build 0)  -->
<!DOCTYPE svg PUBLIC "-//W3C//DTD SVG 1.1 Tiny//EN" "http://www.w3.org/Graphics/SVG/1.1/DTD/svg11-tiny.dtd">
<svg version="1.1" baseProfile="tiny" id="Layer_1" xmlns="http://www.w3.org/2000/svg" xmlns:xlink="http://www.w3.org/1999/xlink"
	 x="0px" y="0px" viewBox="0 0 301.991 377.239" xml:space="preserve">
<path fill="#5E5F5F" d="M293.174,79.678c-8.109-7.399-19.739-7.253-24.496,3.819c-2.441,5.684-3.475,11.619-4.997,17.573
	c-0.962,3.762-2.161,7.46-3.425,11.14c0.016-0.312,0.027-0.622,0.041-0.932c0.009-0.17,0.012-0.34,0.019-0.511
	c0.172-0.311,0.315-0.651,0.385-1.049c0.245-1.414,0.128-2.805-0.203-4.153c0.527-17.976-0.26-35.936,0.103-53.907
	c0.209-10.244-2.305-24.936-16.108-23.288c-8.504,1.016-14.027,8.041-17.395,15.393c-11.415,24.919-12.607,54.668-14.68,81.602
	c-0.384,4.991-0.717,10.023-1.382,14.983c-0.361,2.696-0.57,8.267-2.483,11.226c-0.081-1.485-0.121-2.967-0.148-4.454
	c-0.123-6.573-1.415-13.049-1.931-19.591c-0.149-1.887-0.199-3.742-0.187-5.582c1.731-0.129,3.097-2.217,1.923-3.858
	c-0.539-0.756-1.105-1.449-1.676-2.137c0.22-3.159,0.545-6.322,0.847-9.566c1.198-12.859-0.347-25.95-1.501-38.773
	c-0.774-8.634-6.347-88.89-33.075-62.201c-14.712,14.691-12.255,42.517-13.029,61.306c-0.63,15.338,0.571,30.655,0.928,45.985
	c0.189,8.245,1.244,16.528,1.27,24.779c-1.073-4.042-1.574-8.766-1.866-10.372c-1.56-8.582-3.803-17.045-5.559-25.59
	c-4.139-20.144-6.348-40.647-12.379-60.381c-3.188-10.431-6.584-20.803-11.493-30.572c-2.004-3.988-4.961-7.977-9.327-9.488
	c-8.943-3.099-15.413,6.395-18.436,13.413C89.355,45.992,97.481,84,98.845,117.081c0.881,21.395-1.568,42.394-1.938,63.718
	c-0.143,8.29,0.055,16.571,1.671,24.725c0.773,3.901,2.306,8.943,2.288,13.488c-4.641-3.617-8.098-8.71-11.635-13.422
	c-4.492-5.985-9.354-11.677-13.908-17.618c-8.663-11.302-17.981-21.937-28.545-31.507c-8.176-7.406-25.398-23.481-37.391-14.039
	c-15.799,12.443-8.342,41.167-1.571,56.452c10.459,23.608,27.037,42.831,40.8,64.41c13.772,21.596,17.841,46.437,29.249,69.005
	c8.53,16.871,22.13,34.129,40.479,40.859c11.41,4.187,23.575,5.251,35.54,2.76c5.351-1.114,11.197-4.104,16.563-4.456
	c6.402-0.422,12.712,1.965,18.978,2.977c21.312,3.444,44.809,2.271,60.334-14.732c22.971-25.154,19.697-66.852,22.251-98.227
	c1.882-23.128,1.971-47.267,6.235-70.101c1.66-8.893,4.41-17.389,7.596-25.843c5.881-15.598,12.568-31.485,15.039-48.086
	C302.744,104.902,303.437,89.043,293.174,79.678z M284.294,140.41c-1.383-1.305-2.827-2.431-4.068-3.283
	c-4.166-2.86-9.028,2.729-5.072,6.124c1.728,1.485,3.211,3.018,4.461,4.932c0.38,0.583,0.675,1.228,0.953,1.883
	c-1.577,3.916-3.207,7.843-4.784,11.795c-0.039-0.035-0.077-0.076-0.117-0.111c-1.861-1.643-4.893-1.203-6.409,0.664
	c-2.03,2.498-0.802,5.512,1.653,7.023c0.348,0.215,0.961,0.611,1.604,1.035c-1.864,5.219-3.499,10.501-4.611,15.897
	c-2.974,14.424-3.282,29.506-5.078,44.131c-2.75,22.378-5.213,44.79-7.553,67.213c-1.855,17.766-0.052,41.111-15.091,53.865
	c-9.33,9.315-21.489,12.493-34.358,12.603c-11.853-1.185-30.534-3.957-30.173-14.961c0.373-11.365,13.31-24.268,20.114-32.594
	c14.329-17.531,28.856-34.479,31.258-57.898c3.445-33.563-21.659-60.844-55.073-60.916c-27.043-0.06-57.783,16.36-59.156,46.244
	c-1.561,33.981,34.187,56.706,64.247,40.548c18.519-9.957,30.453-50.276,1.419-55.17c-11.784-1.985-29.199,4.851-28.28,19.334
	c0.758,11.979,14.093,17.692,21.837,7.684c1.024-1.326,0.178-3.192-1.539-3.168c-2.325,0.035-10.753,0.567-9.047-5.001
	c1.054-3.448,6.604-5.676,9.689-6.459c7.188-1.825,12.487,3.06,13.48,9.87c1.281,8.766-2.987,16.463-9.914,21.46
	c-13.543,9.771-35.674,5.38-44.004-9.034c-17.095-29.584,17.021-50.791,42.919-49.944c13.463,0.44,25.618,5.93,33.386,17.129
	c13.776,19.86,3.987,45.297-9,62.371c-12.5,16.434-31.394,32.711-35.522,53.798c-1.028,5.253-0.217,9.626,1.833,13.233
	c-11.674,1.98-22.689,5.687-34.865,2.384c-9.928-2.694-18.67-8.236-25.663-15.771c-16.231-17.479-21.047-39.528-29.232-61.146
	c-9.455-24.976-26.489-44.565-40.868-66.673c-7.359-11.318-14.502-23.317-18.1-36.444c-1.068-3.898-6.468-30.272,1.719-30.581
	c7.564-0.288,15.508,6.822,20.861,11.406c4.164,3.565,8.207,7.255,12.111,11.088c-5.738,2.578-9.824,9.46-12.021,15.002
	c-1.225,3.09,2.763,4.93,4.531,2.242c3.286-4.998,7.657-9.001,12.942-11.657c1.145,1.224,2.298,2.44,3.409,3.703
	c4.7,5.335,9.369,10.681,13.889,16.147c-5.654,2.657-10.273,7.227-13.745,12.398c-1.645,2.447,1.567,5.53,3.554,3.108
	c3.837-4.674,8.504-8.15,13.323-11.662c2.36,2.95,4.68,5.933,6.899,9.004c3.957,5.479,8.068,10.898,13.463,14.808
	c-1.264,2.257-2.342,4.648-3.054,7.341c-0.629,2.377,2.276,4.262,3.903,2.121c1.6-2.103,3.264-4.133,4.928-6.157
	c2.59,1.069,5.236-0.153,6.507-2.544c1.471-2.77,2.108-5.796,2.26-8.952c0.144-0.221,0.298-0.432,0.438-0.656
	c1.142-1.791,0.586-3.682-0.604-4.848c-0.7-7.357-2.979-15.03-3.167-21.646c-0.603-21.108,3.212-42.097,3.367-63.225
	c0.15-20.581-2.198-40.941-3.08-61.475c-0.617-14.406-1.727-29.797,3.188-43.647c1.369-3.865,3.159-10.563,7.01-12.777
	c1.654-0.952,9.729,18.283,10.577,20.515c2.988,7.861,5.219,15.873,7.068,23.971c-7.599-0.488-16.601,0.738-22.056,6.507
	c-1.996,2.111,0.542,5.925,3.259,4.721c3.004-1.33,6.1-2.368,9.214-3.407c3.359-1.121,7.053-2.632,10.521-3.222
	c0.031-0.005,0.055-0.024,0.086-0.031c1.995,9.499,3.521,19.114,5.095,28.761c0.369,2.26,0.767,4.522,1.153,6.783
	c-4.906,0.917-9.747,2.685-14.347,4.414c-2.71,1.018-1.298,5.032,1.466,4.229c4.507-1.312,9.234-2.453,13.627-4.252
	c2.137,12.162,4.506,24.322,7.026,36.378c0.704,3.377,1.692,6.657,3.12,9.501c-2.27,0.985-1.633,4.361,0.733,4.673
	c1.021,0.134,2.045,0.244,3.066,0.363c2.372,2.169,5.446,3.555,9.493,3.702c1.581,0.057,3.041-0.959,3.989-2.28
	c1.136,0.125,2.272,0.247,3.408,0.393c4.31,0.551,6.474-6.134,2.103-7.54c-1.241-0.399-2.486-0.708-3.73-0.977
	c1.102-12.142-0.513-24.554-0.729-36.685c-0.296-16.437-0.898-32.741-0.709-49.183c0.151-13.169-0.508-31.278,6.521-43.208
	c5.889-9.994,10.883-0.391,12.89,6.562c3.642,12.619,4.866,26.136,5.437,39.583c-3.176-1.795-6.973-2.567-10.546-2.347
	c-3.671,0.226-3.807,5.557-0.341,6.313c4.122,0.897,8.092,3.178,10.797,6.439c0.139,0.167,0.302,0.327,0.446,0.492
	c0.114,4.489,0.212,8.943,0.356,13.322c0.234,7.193-0.506,14.354-1.12,21.505c-2.868-1.428-6.001-2.489-9.438-3.266
	c-5.82-1.317-6.614,8.716-0.312,8.288c3.277-0.226,6.417,1.838,9.162,3.604c-0.192,4.122-0.218,8.247,0.181,12.374
	c0.785,8.138,0.792,16.749,1.95,24.89c-0.452,0.098-0.903,0.226-1.353,0.389c-2.202,0.815-2.23,3.805-0.58,5.131
	c1.316,1.059,2.879,1.669,4.515,2.088c2.303,2.883,6.022,3.903,10.372,2.643c0.641-0.185,1.235-0.446,1.809-0.741
	c0.889-0.067,1.741-0.257,2.506-0.679c1.199-0.664,1.812-1.795,1.697-2.979c2.783-3.672,4.27-8.75,5.012-12.715
	c2.041-10.897,2.364-22.068,3.359-33.091c1.352-14.97,2.978-30.043,6.289-44.726c1.326-5.875,5.025-27.784,13.406-28.785
	c8.229-0.982,5.643,14.707,5.295,19.424c-0.818,11.125,0.359,22.306,0.266,33.45c-1.929-1.332-4.022-2.361-6.196-2.613
	c-1.696-0.194-3.332,0.509-4.084,2.108c-0.431,0.914-0.472,1.984-0.117,2.928c0.06,0.161,1.622,2.524,1.927,2.088
	c-0.498,0.716,5.829,5.967,6.498,6.709c0.561,0.625,1.105,1.286,1.652,1.963c-0.378,10.224-1.065,20.493-1.992,30.635
	c-1.71-3.02-3.949-5.757-6.637-8.419c-3.832-3.795-9.432,3.594-4.175,6.598c3.601,2.057,7.537,4.393,10.234,7.658
	c-1.306,11.406-4.688,22.436-5.909,33.852c-2.041-0.252-4.054-0.029-5.546,1.313c-1.622,1.461-1.727,3.328-0.64,5.139
	c1.437,2.401,5.152,3.12,7.638,3.916c2.716,0.869,5.063,2.481,7.665,3.071c3.121,0.709,6.316-3.128,4.767-6.046
	c-0.603-1.138-1.49-2.101-2.528-2.92c4.7-13.726,7.861-27.736,11.493-41.765c3.452-13.332,8.881-26.115,11.643-39.622
	c0.591-2.891,2.657-17.963,8.532-12.772c5.487,4.845,7.074,11.177,7.173,18.366C291.778,117.364,288.479,129.018,284.294,140.41z"/>
</svg>
