<?xml version="1.0" encoding="utf-8"?>
<!-- Svg Vector Icons : http://www.onlinewebfonts.com/icon -->
<!DOCTYPE svg PUBLIC "-//W3C//DTD SVG 1.1//EN" "http://www.w3.org/Graphics/SVG/1.1/DTD/svg11.dtd">
<svg version="1.1" xmlns="http://www.w3.org/2000/svg" xmlns:xlink="http://www.w3.org/1999/xlink" x="0px" y="0px" viewBox="0 0 1000 1000" enable-background="new 0 0 1000 1000" xml:space="preserve">
<metadata> Svg Vector Icons : http://www.onlinewebfonts.com/icon </metadata>
<g><g><g><g><path d="M552.5,194.7c15.6,14.3,25.9,25.9,31.1,35l5.8,7.8l7.8-3.9c14.3-7.8,31.1-22.7,50.6-44.7c14.3-15.6,25.3-25.9,33.1-31.1l9.7-5.8l-5.8-7.8c-22-36.3-51.2-66.1-87.5-89.4l-7.8-3.9l-3.9,5.8c-23.3,27.2-48,51.9-73.9,73.9l-5.8,5.8l3.9,5.8C516.2,157.8,530.5,175.3,552.5,194.7z"/><path d="M498.1,291c58.3,36.9,119.3,55.4,182.8,55.4c76.5,0,133.5-29.2,171.1-87.5l5.8-5.8l-5.8-5.8c-5.2-3.9-11.7-11-19.4-21.4c-24.6-27.2-45.4-46-62.2-56.4l-9.7-3.9l-3.9,9.7c-24.6,51.9-70,77.8-136.1,77.8c-38.9,0-78.8-9.7-119.6-29.2c-40.8-19.4-72.3-42.8-94.3-70l-31.1-44.7l13.6,52.5C403.4,210.9,439.7,254,498.1,291z"/><path d="M489.3,592.4c-14.9-17.5-36-40.5-63.2-69l-3.9-5.8c32.4-62.2,33.1-125.7,1.9-190.6c-29.8-66.1-77.1-105.6-141.9-118.6c-11.7-1.3-24-1.9-36.9-1.9c-22,0-44.1,4.5-66.1,13.6c-22,9.1-39.2,18.5-51.5,28.2c-12.3,9.7-28.8,23.7-49.6,41.8c-22,19.4-38.9,33.1-50.6,40.8l-11.7,9.7l13.6,7.8c1.3,1.3,8.4,11,21.4,29.2c29.8,42.8,52.5,64.2,68.1,64.2c3.9,0,17.5-12.3,40.8-36.9c18.1-20.7,27.9-31.8,29.2-33.1c45.4-36.3,83-54.4,112.8-54.4c5.2,0,11,0.6,17.5,1.9c19.4,3.9,31.8,13,36.9,27.2c3.9,15.6,2.3,33.4-4.9,53.5c-7.1,20.1-16.5,36-28.2,47.6c-6.5,6.5-17.5,14.9-33.1,25.3c-22,16.9-37.6,32.4-46.7,46.7l-5.8,5.8l7.8,5.8l25.3,25.3c29.8,29.8,52.5,51.2,68.1,64.2l7.8,7.8l5.8-7.8c19.4-23.3,35-42.8,46.7-58.3c2.6,3.9,7.1,9.7,13.6,17.5c9.1,13,15.9,23.3,20.4,31.1c4.5,7.8,10.4,18.1,17.5,31.1c7.1,13,11.7,24.6,13.6,35c1.9,10.4,2.9,22.7,2.9,36.9c0,14.3-2.6,28.5-7.8,42.8c-9.1,25.9-27.9,46.7-56.4,62.2c-28.5,15.6-60.9,22-97.2,19.4c-83-5.2-158.8-77.8-227.5-217.8c-3.9-6.5-7.8-16.2-11.7-29.2c-11.7-31.1-24-51.2-36.9-60.3L10,517.5l3.9,23.3c10.4,63.5,29.8,124.4,58.3,182.8c28.5,58.3,62.9,107.6,103.1,147.8c24.6,23.3,55.4,42.1,92.4,56.4c36.9,14.3,73.6,21.4,109.9,21.4c49.3,0,91.4-13.9,126.4-41.8c35-27.9,53.1-70.3,54.4-127.4c0-37.6-7.8-73.9-23.3-108.9C519.4,636.1,504.2,609.9,489.3,592.4z"/><path d="M966.7,408.6c-11.7-20.7-34.7-37.9-69-51.5c-34.4-13.6-62.5-17.8-84.6-12.6C769,353.5,717.8,382,659.4,430c-18.1,14.3-32.4,25-42.8,32.1c-10.4,7.1-23.3,13.9-38.9,20.4c-15.6,6.5-30.5,9.7-44.7,9.7c-15.6,0-31.1-2.6-46.7-7.8l-25.3-7.8l13.6,23.3c31.1,51.9,68.7,77.8,112.8,77.8c29.8,0,66.8-13.6,110.8-40.8l7.8,25.3c10.4,29.8,33.4,60,69,90.4c35.6,30.5,70.3,45.7,104,45.7h5.8c32.4-1.3,58.3-18.8,77.8-52.5c18.1-32.4,27.2-73.6,27.2-123.5C990,472.5,982.2,434.5,966.7,408.6z M908.3,523.3c-10.4,18.1-25.9,33.4-46.7,45.7c-20.7,12.3-42.1,18.5-64.2,18.5c-29.8,0-54.4-11.7-73.9-35l-17.5-19.4c9.1-6.5,23.3-16.2,42.8-29.2c73.9-49.3,126.4-71.3,157.5-66.1C923.2,466.3,923.9,494.8,908.3,523.3z"/></g></g></g><g></g><g></g><g></g><g></g><g></g><g></g><g></g><g></g><g></g><g></g><g></g><g></g><g></g><g></g><g></g></g>
</svg>