<?xml version="1.0" encoding="utf-8"?>
<!-- Generator: Adobe Illustrator 16.0.4, SVG Export Plug-In . SVG Version: 6.00 Build 0)  -->
<!DOCTYPE svg PUBLIC "-//W3C//DTD SVG 1.1 Tiny//EN" "http://www.w3.org/Graphics/SVG/1.1/DTD/svg11-tiny.dtd">
<svg version="1.1" baseProfile="tiny" id="Layer_1" xmlns="http://www.w3.org/2000/svg" xmlns:xlink="http://www.w3.org/1999/xlink"
	 x="0px" y="0px" viewBox="0 0 506.615 377.123" xml:space="preserve">
<g>
	<path fill="#5E5F5F" d="M243.535,324.921c-2.246-14.965-4.78-30.05-8.517-44.724c-7.531-29.582-28.491-42.3-57.896-45.035
		c-3.308-0.308-6.623-0.466-9.94-0.595c-4.776-2.473-10.102-3.94-14.962-6.271c-7.584-3.639-14.682-8.241-21.704-12.85
		c-8.137-5.341-14.581-12.67-21.971-18.965c-6.457-5.5-28.765-19.875-31.813-5.683c-2.191-1.99-4.42-3.943-6.754-5.802
		c-6.69-5.33-26.062-19.421-32.055-5.905c-1.189-0.643-2.38-1.284-3.609-1.87c-6.388-3.048-17.03-5.681-21.91,1.383
		c-3.061,4.431-3.214,9.473-1.069,13.675c-4.514,0.969-8.437,3.26-10.189,7.656c-4.738,11.888,6.225,21.531,14.725,27.989
		C50.496,254.23,77.29,287.712,120.616,300c18.114,5.138,48.481,5.419,56.358,25.697c5.473,14.089,1.6,31.629,1.405,46.312
		c-0.094,7.094,10.912,6.663,10.986-0.405c0.22-21.01,6.585-51.654-13.954-65.86c-13.625-9.423-32.247-11.496-48-15.413
		c-21.58-5.365-39.362-15.55-56.772-29.148C56.262,249.954,42.78,237.657,28.1,226.799c-5.084-3.76-11.019-6.69-15.681-10.965
		c-2.392-2.195-4.117-4.941-3.623-8.22c0.388-2.57,1.763-6.07,4.78-6.335c1.906-0.167,3.943,0.353,5.814,0.649
		c3.96,0.628,7.918,1.972,11.57,3.582c14.75,6.503,21.332,22.234,34.081,31.179c10.597,7.435,22.288,20.958,35.727,22.639
		c2.873,2.242,6.04,3.997,8.989,5.059c7.888,2.841,16.095,4.058,24.267,5.796c9.107,1.937,17.188,7.101,25.767,10.566
		c3.553,1.436,5.132-3.724,2.514-5.701c-9.047-6.834-18.424-11.588-29.397-14.34c-6.603-1.657-13.222-2.853-19.572-5.411
		c-3.557-1.469-6.51-3.799-8.86-6.989c-8.506-10.605,9.133-7.873,11.636-7.596c13.815,1.526,26.752,5.728,40.777,6.235
		c15.69,0.567,31.746,0.476,46.311,7.091c19.655,8.925,23.089,34.546,27.095,53.19c2.983,13.884,6.563,27.624,7.902,41.776
		c0.709,7.495,1.42,15.267,6.582,21.097c2.341,2.644,6.816-0.682,4.95-3.686C243.031,355.637,245.407,337.393,243.535,324.921z
		 M91.377,241.247c-0.074,0.552-0.097,1.099-0.105,1.644c-9.596-7.211-19.66-13.917-28.2-22.25
		c-11.35-11.074-20.071-22.576-35.724-27.419c-1.955-0.604-4.263-1.081-6.691-1.332c-0.233-1.577-0.463-3.158-0.576-4.7
		c-0.467-6.312,15.453,1.254,16.822,1.962c9.112,4.718,16.397,13.028,23.523,20.223c9.787,9.881,20.755,19.216,33.329,25.347
		C92.568,236.48,91.73,238.625,91.377,241.247z M100.985,229.309c-20.659-12.458-35.846-32.493-55.682-45.751
		c6.458-3.186,24.147,15.043,28.12,18.798c8.708,8.232,17.882,19.35,28.659,26.606C101.716,229.077,101.34,229.176,100.985,229.309z
		 M118.797,228.307c-0.033-0.005-0.068-0.009-0.103-0.014c-2.433-2.593-5.062-4.198-8.592-6.504
		c-7.095-4.63-12.842-10.896-18.805-16.836c-2.923-2.913-5.818-5.818-8.752-8.677c4.313-6.662,14.276,4.38,18.537,8.232
		c5.598,5.061,10.778,10.556,16.322,15.67c3.176,2.931,7.87,6.767,13.274,10.455C126.721,229.774,122.767,228.919,118.797,228.307z"
		/>
	<path fill="#5E5F5F" d="M505.47,199.935c-1.751-4.396-5.675-6.688-10.188-7.656c2.145-4.202,1.991-9.244-1.069-13.675
		c-4.88-7.063-15.522-4.431-21.909-1.383c-1.229,0.586-2.42,1.227-3.609,1.87c-5.993-13.516-25.365,0.575-32.056,5.905
		c-2.334,1.859-4.563,3.812-6.754,5.802c-3.049-14.192-25.357,0.183-31.813,5.683c-7.39,6.295-13.834,13.624-21.971,18.965
		c-7.021,4.608-14.119,9.21-21.704,12.85c-4.86,2.331-10.186,3.799-14.962,6.271c-3.317,0.129-6.633,0.287-9.94,0.595
		c-29.406,2.735-50.365,15.453-57.896,45.035c-3.736,14.674-6.271,29.759-8.517,44.724c-1.873,12.472,0.503,30.716-6.195,41.496
		c-1.866,3.004,2.609,6.33,4.95,3.686c5.161-5.83,5.872-13.602,6.581-21.097c1.34-14.152,4.919-27.893,7.902-41.776
		c4.006-18.645,7.44-44.266,27.095-53.19c14.565-6.615,30.621-6.523,46.312-7.091c14.024-0.507,26.962-4.709,40.776-6.235
		c2.503-0.276,20.143-3.009,11.637,7.596c-2.351,3.19-5.304,5.52-8.86,6.989c-6.35,2.559-12.969,3.754-19.572,5.411
		c-10.974,2.752-20.351,7.506-29.397,14.34c-2.617,1.977-1.039,7.136,2.515,5.701c8.579-3.466,16.659-8.63,25.767-10.566
		c8.172-1.738,16.38-2.955,24.268-5.796c2.949-1.062,6.116-2.817,8.988-5.059c13.439-1.68,25.13-15.204,35.728-22.639
		c12.749-8.945,19.331-24.676,34.081-31.179c3.652-1.61,7.609-2.954,11.57-3.582c1.871-0.297,3.908-0.816,5.814-0.649
		c3.017,0.265,4.392,3.765,4.78,6.335c0.493,3.278-1.23,6.024-3.623,8.22c-4.662,4.274-10.597,7.205-15.681,10.965
		c-14.681,10.858-28.162,23.155-42.539,34.384c-17.411,13.599-35.192,23.784-56.772,29.148c-15.753,3.917-34.376,5.99-48,15.413
		c-20.54,14.206-14.175,44.851-13.954,65.86c0.074,7.067,11.08,7.499,10.986,0.405c-0.194-14.683-4.067-32.223,1.405-46.312
		c7.877-20.278,38.244-20.56,56.358-25.697c43.326-12.288,70.12-45.771,104.746-72.077
		C499.246,221.466,510.208,211.823,505.47,199.935z M396.513,221.789c-3.531,2.306-6.16,3.911-8.593,6.504
		c-0.034,0.005-0.069,0.009-0.103,0.014c-3.97,0.613-7.924,1.468-11.882,2.327c5.405-3.688,10.099-7.524,13.274-10.455
		c5.544-5.114,10.725-10.609,16.322-15.67c4.261-3.852,14.224-14.895,18.537-8.232c-2.934,2.858-5.829,5.764-8.752,8.677
		C409.355,210.893,403.608,217.159,396.513,221.789z M405.63,229.309c-0.355-0.133-0.731-0.232-1.098-0.347
		c10.777-7.256,19.951-18.374,28.659-26.606c3.973-3.755,21.661-21.984,28.12-18.798
		C441.476,196.816,426.289,216.851,405.63,229.309z M485.957,191.889c-2.427,0.25-4.735,0.727-6.69,1.332
		c-15.652,4.843-24.374,16.346-35.724,27.419c-8.54,8.333-18.604,15.039-28.199,22.25c-0.009-0.545-0.031-1.091-0.105-1.644
		c-0.354-2.622-1.191-4.767-2.379-6.525c12.574-6.131,23.542-15.466,33.328-25.347c7.127-7.195,14.412-15.505,23.524-20.223
		c1.369-0.708,17.289-8.275,16.822-1.962C486.42,188.731,486.191,190.312,485.957,191.889z"/>
	<path fill="#5E5F5F" d="M258.353,210.341c0.481-0.228,0.968-0.435,1.452-0.655c19.343,1.553,37.508,7.589,57.174,3.038
		c16.833-3.896,32.584-11.352,46.393-21.762c15.673-11.816,28.445-25.838,38.342-42.822c9.622-16.514,17.592-35.367,31.654-48.616
		c0.2-0.189,0.276-0.417,0.267-0.641c0.076-0.072,0.159-0.131,0.236-0.204c0.524-0.498-0.035-1.241-0.623-1.249
		c-10.879-0.136-21.848,1.759-32.902,1.727c-11.828-0.034-23.579,0.279-35.362,1.36c-2.608,0.239-5.239,0.525-7.881,0.858
		c0.6-4.43,1.001-8.917,1.183-13.476c0.757-19.098-1.041-39.486,5.168-57.782c0.09-0.262,0.05-0.498-0.064-0.691
		c0.034-0.099,0.08-0.19,0.113-0.291c0.229-0.686-0.612-1.08-1.135-0.811c-9.674,4.98-18.474,11.795-28.254,16.95
		c-10.464,5.515-20.697,11.299-30.599,17.778c-4.654,3.045-9.3,6.319-13.821,9.812c-1.629-4.083-3.371-8.089-5.193-11.979
		c-5.017-10.716-10.681-21.017-16.684-31.209c-5.61-9.525-9.513-19.948-15.124-29.271c-0.303-0.504-1.227-0.611-1.392,0.093
		c-0.024,0.104-0.033,0.204-0.057,0.307c-0.199,0.105-0.356,0.285-0.418,0.554c-4.334,18.828-16.583,35.227-25.978,51.871
		c-3.478,6.161-6.427,12.451-8.896,18.886c-4.215-3.212-8.529-6.235-12.851-9.062c-9.902-6.479-20.134-12.263-30.599-17.778
		c-9.78-5.155-18.58-11.97-28.253-16.95c-0.522-0.269-1.365,0.125-1.135,0.811c0.034,0.101,0.08,0.191,0.113,0.291
		c-0.114,0.194-0.154,0.43-0.064,0.691c6.21,18.295,4.412,38.684,5.168,57.782c0.181,4.559,0.583,9.046,1.183,13.476
		c-2.641-0.333-5.272-0.62-7.881-0.858c-11.784-1.081-23.534-1.394-35.363-1.36c-11.055,0.032-22.023-1.862-32.902-1.727
		c-0.588,0.007-1.147,0.75-0.623,1.249c0.077,0.073,0.16,0.132,0.237,0.204c-0.01,0.224,0.065,0.451,0.267,0.641
		c14.062,13.249,22.032,32.102,31.654,48.616c9.896,16.984,22.668,31.005,38.342,42.822c13.809,10.41,29.559,17.866,46.392,21.762
		c19.193,4.442,36.957-1.197,55.78-2.916c0.025,0.038,0.051,0.074,0.076,0.112c0.509,0.784,1.84,0.963,2.439,0.342
		c0.036-0.011,0.072-0.014,0.108-0.022c0.074,0.035,0.148,0.065,0.223,0.101c0.81,0.382,1.959-0.108,2.216-0.891
		c0.031-0.002,0.062-0.004,0.093-0.005c0.917-0.043,1.724-1.063,1.533-1.887c0.744-0.599,1.467-1.234,2.169-1.902
		c0.06,0.154,0.118,0.307,0.181,0.459c-0.004,0.419-0.005,0.837,0.015,1.255c0.002,0.055,0.036,0.091,0.048,0.141
		c-0.233,0.832,0.593,1.889,1.526,1.933c0.031,0.001,0.062,0.003,0.093,0.005C256.393,210.233,257.543,210.724,258.353,210.341z
		 M391.25,108.497c10.801-0.396,23.041,0.298,33.229-3.837c-24.457,23.27-36.765,56.214-64.461,76.836
		c-17.369,12.933-38.257,22.871-60.212,23.951c-8.242,0.405-16.531-1.26-24.645-1.768c13.576-4.778,27.094-9.05,38.554-19.008
		c13.042-11.333,23.46-25.302,30.776-40.971c4.816-10.316,8.415-20.831,10.747-31.674C367.081,110,379.08,108.942,391.25,108.497z
		 M330.457,57.788c9.354-5.413,20.492-10.539,27.553-18.966c-6.932,20.755-7.453,42.706-10.988,64.08
		c-13.883,2.469-27.682,6.548-39.824,13.229c-2.467,1.357-4.783,2.87-6.994,4.491c0.003-0.657,0.02-1.311,0.002-1.973
		c-0.314-11.889-2.903-23.859-6.711-35.377C304.941,73.656,317.361,65.366,330.457,57.788z M298.202,136.464
		c7.978-7.787,17.327-13.763,29.336-17.671c5.727-1.864,11.49-3.413,17.29-4.71c-1.795,7.758-4.212,15.398-7.736,22.828
		c-9.279,19.565-23.071,38.137-41.957,49.383c-11.89,7.08-26.644,9.057-36.136,18.961c2.993-3.21,4.578-7.429,6.035-11.738
		c0.301-0.326,0.603-0.649,0.908-0.963c7.03-7.247,12.692-14.66,17.819-23.325C289.917,158.827,295.382,148.002,298.202,136.464z
		 M284.764,91.051c1.069,3.747,2.032,7.538,2.87,11.384c2.276,10.439,2.296,19.98,0.623,29.222
		c-6.386,7.264-11.639,15.608-16.416,24.207c-4.89,8.801-8.429,17.431-11.134,27.159c-0.607,2.188-1.391,4.404-2.193,6.639
		c-0.023,0.028-0.045,0.056-0.068,0.083c-0.131-0.793-0.258-1.587-0.373-2.379c-0.302-2.078-0.559-4.146-0.791-6.21
		c1.63-8.524,2.314-16.736,2.145-25.548c-0.109-5.717-0.399-11.434-1.061-17.067c2.779-15.681,8.562-29.288,20.641-41.789
		C280.891,94.801,282.811,92.903,284.764,91.051z M148.606,38.822c7.061,8.428,18.198,13.554,27.553,18.966
		c12.813,7.415,24.979,15.511,36.22,24.863c-2.417,8.18-4.112,16.6-5.131,25.298c-0.495,4.217-0.773,8.444-0.84,12.668
		c-2.209-1.619-4.524-3.131-6.988-4.487c-12.144-6.681-25.942-10.76-39.825-13.229C156.059,81.528,155.538,59.577,148.606,38.822z
		 M206.809,205.447c-21.955-1.081-42.843-11.019-60.212-23.951c-27.696-20.622-40.003-53.566-64.46-76.836
		c10.188,4.135,22.428,3.44,33.229,3.837c12.17,0.446,24.169,1.504,36.011,3.53c2.333,10.843,5.93,21.359,10.747,31.674
		c7.316,15.669,17.734,29.638,30.776,40.971c11.46,9.958,24.978,14.229,38.554,19.008
		C223.34,204.187,215.05,205.852,206.809,205.447z M211.481,186.293c-18.886-11.246-32.678-29.817-41.958-49.383
		c-3.524-7.43-5.941-15.069-7.736-22.827c5.8,1.297,11.563,2.846,17.29,4.71c11.332,3.688,20.284,9.231,27.961,16.385
		c0.822,8.053,2.43,16.024,4.852,23.803c4.765,15.3,14.812,26.416,24.31,38.308C228.248,193.38,219.255,190.922,211.481,186.293z
		 M226.844,170.129c-3.486-6.693-5.987-13.81-7.699-21.134c2.002,2.73,3.948,5.587,5.855,8.593
		c6.31,9.943,11.075,20.33,15.048,31.432c0.085,0.239,0.166,0.482,0.25,0.723C235.86,183.281,230.512,177.17,226.844,170.129z
		 M248.542,187.367c-0.119,0.816-0.25,1.635-0.385,2.453c-0.823-2.289-1.627-4.557-2.25-6.795
		c-2.705-9.728-6.244-18.358-11.133-27.159c-5.255-9.457-11.083-18.605-18.366-26.346c-0.436-7.859-0.152-15.754,0.703-23.456
		c0.627-5.643,1.759-11.091,3.235-16.408c2.472,2.293,4.898,4.65,7.263,7.097c12.078,12.501,17.861,26.108,20.64,41.789
		c-0.661,5.633-0.95,11.35-1.06,17.067c-0.169,8.812,0.515,17.023,2.145,25.548C249.1,183.221,248.844,185.289,248.542,187.367z
		 M253.307,116.782c-1.678-4.435-3.791-8.736-6.482-12.846c-6.184-9.439-14.145-17.871-22.883-25.368
		c8.312-22.559,21.374-43.301,26.939-66.942c1.576,10.881,8.356,21.096,13.468,30.618c6.566,12.231,12.331,24.674,16.855,37.609
		c-8.158,7.175-15.58,15.177-21.414,24.083C257.098,108.045,254.986,112.347,253.307,116.782z"/>
</g>
</svg>
