<?xml version="1.0" encoding="utf-8"?>
<!-- Generator: Adobe Illustrator 16.0.4, SVG Export Plug-In . SVG Version: 6.00 Build 0)  -->
<!DOCTYPE svg PUBLIC "-//W3C//DTD SVG 1.1 Tiny//EN" "http://www.w3.org/Graphics/SVG/1.1/DTD/svg11-tiny.dtd">
<svg version="1.1" baseProfile="tiny" id="Layer_1" xmlns="http://www.w3.org/2000/svg" xmlns:xlink="http://www.w3.org/1999/xlink"
	 x="0px" y="0px" viewBox="0 0 334.317 378.392" xml:space="preserve">
<path fill="#5E5F5F" d="M323.948,103.849c-13.391-11.9-29.632,5.608-38.018,16.068c-11.5,14.342-18.75,30.077-26.994,46.621
	c-0.337,0.677-4.028,7.566-5.151,6.082c-1.616-2.136-1.451-6.096-1.557-8.684c-0.286-7.039,2.17-14.353,4-20.981
	c4.735-17.156,10.583-34.649,16.784-51.233c7.213-19.292,19.95-54.73-5.142-65.489c-24.98-10.71-30.943,39.477-34.567,54.561
	c-4.076,16.969-8.716,33.73-13.955,50.307c-1.011,3.199-6.342,18.529-9.237,9.834c-2.29-6.879-1.442-15.114-0.602-22.148
	c1.941-16.248,5.812-31.56,5.806-48.086c-0.005-17-0.125-33.772-3.283-50.483c-1.489-7.877-3.907-16.819-11.327-19.788
	c-5.782-2.313-11.548,5.272-14.157,9.727c-11.991,20.478-12.703,43.776-14.526,67.398c-1.409,18.256-2.9,37.459-6.253,55.418
	c-0.803,4.301-2.365,8.403-4.783,11.907c-2.9,4.204-5.391-7.003-5.854-8.573c-2.645-8.974-3.47-18.689-4.43-28.02
	c-1.688-16.424-3.446-32.785-5.437-49.172c-1.581-13.024-1.325-26.598-3.372-39.486c-1.021-6.441-4.098-15.769-11.627-15.263
	c-9.395,0.631-15.441,9.255-20.479,17.134c-16.043,25.096-12.734,61.96-10.181,90.663c1.43,16.075,6.717,79.517-20.064,78.673
	c-6.954-4.845-14.018-8.954-19.109-16.782c-4.547-6.99-7.258-15.096-14.005-20.076c-9.53-7.034-25.081-12.227-35.925-5.559
	c-11.842,7.281-12.937,21.654-6.934,34.118c9.98,20.723,21.756,40.418,32.01,60.993c18.661,37.45,22.054,92.988,57.636,117.589
	c45.613,31.535,116.134,16.675,157.05-18.689c23.022-19.899,31.414-47.122,33.318-78.121c2.342-38.092,15.774-67.529,36.077-97.822
	C331.569,148.719,343.473,121.203,323.948,103.849z M319.574,145.192c-5.701,12.599-14.869,23.391-21.913,35.102
	c-8.39,13.948-14.758,29.14-19.392,45.045c-4.823,16.556-4.835,33.93-6.294,51.069c-1.644,19.322-9.373,35.205-21.19,49.363
	c-10.834,12.98-25.708,20.935-40.219,27.681c-14.889,6.922-31.36,11.813-47.908,13.32c-18.048-5.399-29.592-24.945-38.745-40.061
	c-13.335-22.023-19.241-46.055-14.743-71.659c7.849-44.671,55.119-59.792,94.894-49.412c23.303,6.081,36.724,30.443,30.983,53.395
	c-5.225,20.897-26.303,34.209-46.599,36.104c-21.449,2.002-37.582-10.67-33.303-33.224c2.038-10.741,9.629-20.117,19.822-23.98
	c8.517-3.228,22.708,0.792,19.899,12.438c-1.408,5.835-9,13.624-14.313,7.542c-1.719-1.969-4.854-0.036-4.302,2.357
	c4.329,18.763,25.678,1.198,26.427-10.951c1.414-22.913-28.611-24.827-42.202-13.433c-16.022,13.431-22.073,39.129-9.138,56.68
	c12.201,16.553,37.375,15.778,54.842,10.214c23.786-7.577,40.746-31.191,41.399-55.762c0.66-24.821-18.78-45.035-41.08-52.102
	c-21.376-6.774-51.61-4.771-71.365,5.924c-22.738,12.309-34.887,34.514-38.213,59.633c-3.566,26.937,5.251,52.108,19.01,74.811
	c6.173,10.186,14.569,23.114,25.209,31.404c-17.044-1.773-33.465-7.865-47.55-19.857C80.882,336.011,74.396,318.111,68,302.501
	c-7.48-18.251-12.682-37.45-20.126-55.706c-6.667-16.351-16.275-31.01-23.932-46.784c-5.646-11.632-26.901-39.041-5.969-45.242
	c14.776-4.378,26.773,8.796,33.265,21.189c5.257,10.034,18.322,24.611,31.165,24.615c18.185,0.008,23.697-25.19,26.471-39.233
	c6.668-33.774-3.667-68.644-0.331-102.861c1.449-14.871,6.152-28.987,15.515-39.929c7.816-9.134,9.308,4.919,9.633,10.54
	c0.418,7.231,1.003,14.324,1.881,21.522c2.067,16.913,4.396,33.71,5.744,50.722c1.191,15.012,2.675,30.039,7.448,44.257
	c2.064,6.151,8.029,13.845,14.673,9.531c9.862-6.403,11.805-21.113,13.116-32.445c1.925-16.67,3.919-33.324,5.295-50.066
	c1.203-14.619,1.748-29.386,6.685-43.151c1.551-4.324,3.464-8.473,5.604-12.475c2.854-5.338,4.369-7.678,6.653-1.063
	c5.907,17.096,4.662,37.329,4.543,55.286c-0.121,18.294-5.043,35.646-6.486,53.775c-0.677,8.509,0.042,19.564,5.242,26.346
	c15.045,19.623,26.749-23.928,29.385-32.556c5.366-17.559,9.761-35.467,13.92-53.41c1.662-7.171,3.1-14.214,6.156-20.865
	c3.7-8.057,11.768-9.373,16.606-1.994c3.231,4.927,2.195,12.561,1.36,18.027c-2.111,13.842-8.6,26.823-12.868,39.96
	c-5.574,17.163-11.812,34.608-15.529,52.399c-1.819,8.706-1.667,17.855,2.112,25.872c3.295,6.991,12.175,6.991,16.75,1.858
	c6.251-7.013,9.343-16.591,13.19-25.269c3.464-7.812,8.984-15.056,13.797-21.877c5.549-7.864,12.106-16.664,20.49-20.922
	c4.473-2.271,7.927-0.787,10.843,3.374C326.669,125.012,323.735,135.998,319.574,145.192z"/>
</svg>
